<svg version="1.2" xmlns="http://www.w3.org/2000/svg" viewBox="0 0 468 411" width="510" height="510">
	<title>mtxn_p7n0_210118-ai</title>
	<style>
		.s0 { fill: #000000 } 
		.s1 { fill: #7c7c7c } 
		.s2 { fill: #2d2d2d } 
		.s3 { opacity: .6;mix-blend-mode: multiply;fill: #000000 } 
		.s4 { mix-blend-mode: screen;fill: #444444 } 
	</style>
	<filter id="f0">
		<feFlood flood-color="#f70808" flood-opacity="1" />
		<feBlend mode="normal" in2="SourceGraphic"/>
		<feComposite in2="SourceAlpha" operator="in" />
	</filter>
	<g id="Layer 1" filter="url(#f0)">
		<g id="&lt;Group&gt;">
			<g id="&lt;Group&gt;">
				<g id="&lt;Group&gt;">
					<g id="&lt;Group&gt;">
						<g id="&lt;Group&gt;">
							<path id="&lt;Compound Path&gt;" fill-rule="evenodd" class="s0" d="m118.7 0.8c27.4 0 54.7 9.3 76.7 26.1 17.5 13.3 30.8 30.5 39.2 50.5 8.5-20 21.8-37.2 39.3-50.5 22-16.8 49.3-26.1 76.7-26.1 31.1 0 59.6 11.9 80.2 33.4 23.3 24.3 35.6 59.9 35.6 102.9 0 34.8-12.2 70.9-36.3 107.4-19 28.8-45.4 57.9-78.4 86.5-56 48.5-112.9 79.4-113.5 79.7l-3.6 1.9-3.5-1.9c-0.6-0.3-57.5-31.2-113.5-79.7-33.1-28.6-59.4-57.7-78.4-86.5-24.1-36.5-36.3-72.6-36.3-107.4 0-43 12.3-78.6 35.6-102.9 20.6-21.5 49.1-33.4 80.2-33.4q0 0 0 0zm115.9 101.7c-13-60.2-65.2-94.1-115.9-94.1-55 0-108.2 39.7-108.2 128.7 0 145.8 224.1 266.9 224.1 266.9 0 0 224.2-121.1 224.2-266.9 0-89-53.2-128.7-108.2-128.7-50.8 0-102.9 33.9-116 94.1z"/>
						</g>
					</g>
					<g id="&lt;Group&gt;">
						<g id="&lt;Group&gt;">
							<path id="&lt;Compound Path&gt;" fill-rule="evenodd" class="s0" d="m977.4 137.8c0 42-17.4 81-53 119.3-30.2 32.4-68 58.6-101.3 81.7-36 25-77.5 51-77.5 68.3 0-17.3-41.5-43.3-77.5-68.3-33.3-23.1-71.1-49.3-101.2-81.7-35.7-38.3-53-77.3-53-119.3 0-40 13.1-73.6 38-97.2 22.1-20.9 51.8-32.4 83.6-32.4h0.1c26.6 0 52.5 8.4 73.1 23.5 16.3 12 28.9 27.9 36.9 46.7 8.1-18.8 20.6-34.7 37-46.7 20.5-15.1 46.5-23.5 73.1-23.5 31.9 0 61.6 11.5 83.6 32.4 24.9 23.6 38.1 57.2 38.1 97.2zm-7.6 0c0-81.9-57.1-122-114.1-122-48.8 0-97.6 29.5-110.1 87.4-12.5-57.9-61.2-87.4-110-87.4-57 0-114.2 40.1-114.2 122 0 145.8 224.2 209.5 224.2 265.2 0-55.7 224.2-119.4 224.2-265.2z"/>
						</g>
					</g>
					<g id="&lt;Group&gt;">
						<g id="&lt;Group&gt;">
							<path id="&lt;Compound Path&gt;" fill-rule="evenodd" class="s0" d="m1376.9 15.8c81 0 141.5 113.6 54.2 211.3-81.8 91.4-174.5 176.9-174.5 176.9 0 0-92.7-85.5-174.5-176.9-87.3-97.7-26.8-211.3 54.2-211.3 40.2 0 85.5 28.1 120.3 100.2 34.8-72.1 80.1-100.2 120.3-100.2zm-240.7-7.6c-19.7 0-39 6.3-55.7 18.1-16.2 11.5-29.3 27.6-37.8 46.7-10.5 23.3-13.5 49.5-8.8 75.8 5.2 29.5 19.5 57.5 42.6 83.3 81.1 90.7 174 176.6 175 177.5l5.1 4.7 5.1-4.7c1-0.9 93.9-86.8 175-177.5 23.1-25.8 37.4-53.8 42.6-83.3 4.7-26.3 1.7-52.5-8.8-75.8-8.5-19.1-21.6-35.2-37.8-46.7-16.7-11.8-36-18.1-55.8-18.1-22.9 0-46 8.5-66.8 24.7-20.1 15.5-38 37.8-53.5 66.5-15.5-28.7-33.4-51-53.5-66.5-20.8-16.2-43.9-24.7-66.8-24.7q-0.1 0-0.1 0z"/>
						</g>
					</g>
				</g>
				<g id="&lt;Group&gt;">
					<g id="&lt;Group&gt;">
						<g id="&lt;Group&gt;">
							<path id="&lt;Compound Path&gt;" class="s1" d="m118.7 471.3c-31.1 0-59.6 11.8-80.2 33.3-23.3 24.3-35.6 59.9-35.6 103 0 34.7 12.2 70.8 36.3 107.3 19 28.8 45.3 57.9 78.4 86.5 56 48.5 112.9 79.4 113.5 79.7l3.5 1.9 3.6-1.9c0.6-0.3 57.5-31.2 113.5-79.7 33-28.6 59.4-57.7 78.4-86.5 24.1-36.5 36.3-72.6 36.3-107.3 0-43.1-12.3-78.7-35.6-103-20.6-21.5-49.1-33.3-80.2-33.3-27.4 0-54.7 9.2-76.7 26-17.5 13.3-30.8 30.5-39.3 50.6-8.4-20.1-21.7-37.3-39.2-50.6-22-16.8-49.3-26-76.7-26q0 0 0 0z"/>
						</g>
					</g>
					<g id="&lt;Group&gt;">
						<g id="&lt;Group&gt;">
							<path id="&lt;Compound Path&gt;" class="s1" d="m939.3 511c-22-20.9-51.7-32.4-83.6-32.4-26.6 0-52.6 8.4-73.1 23.5-16.4 12-28.9 27.9-37 46.7-8-18.8-20.6-34.7-36.9-46.7-20.6-15.1-46.5-23.5-73.1-23.5h-0.1c-31.8 0-61.5 11.5-83.6 32.4-24.9 23.6-38 57.2-38 97.2 0 42 17.3 81 53 119.4 30.1 32.3 67.9 58.5 101.2 81.7 36 24.9 77.5 50.9 77.5 68.3 0-17.4 41.5-43.4 77.5-68.3 33.3-23.2 71.1-49.4 101.3-81.7 35.6-38.4 53-77.4 53-119.4 0-40-13.2-73.6-38.1-97.2z"/>
						</g>
					</g>
					<g id="&lt;Group&gt;">
						<g id="&lt;Group&gt;">
							<path id="&lt;Compound Path&gt;" class="s1" d="m1136.2 478.6c-19.7 0-39 6.3-55.7 18.1-16.2 11.5-29.3 27.6-37.8 46.7-10.5 23.3-13.5 49.5-8.8 75.9 5.2 29.4 19.5 57.4 42.6 83.2 81.1 90.7 174 176.7 175 177.5l5.1 4.7 5.1-4.7c1-0.8 93.9-86.8 175-177.5 23.1-25.8 37.4-53.8 42.6-83.2 4.7-26.3 1.7-52.6-8.8-75.9-8.5-19.1-21.6-35.2-37.8-46.7-16.7-11.8-36-18.1-55.8-18.1-22.9 0-46 8.6-66.8 24.7-20.1 15.5-38 37.9-53.5 66.5-15.5-28.6-33.4-51-53.5-66.5-20.8-16.1-43.9-24.7-66.8-24.7v7.6-7.6q-0.1 0-0.1 0z"/>
						</g>
					</g>
				</g>
			</g>
			<g id="&lt;Group&gt;">
				<g id="&lt;Group&gt;">
					<g id="&lt;Group&gt;">
						<path id="&lt;Path&gt;" class="s2" d="m234.6 573c-27.1-125.6-224.1-136.6-224.1 34.6 0 145.8 224.1 266.9 224.1 266.9 0 0 224.2-121.1 224.2-266.9 0-171.2-197-160.2-224.2-34.6z"/>
						<path id="&lt;Compound Path&gt;" fill-rule="evenodd" class="s0" d="m118.7 471.3c27.4 0 54.7 9.2 76.7 26 17.5 13.3 30.8 30.5 39.2 50.6 8.5-20.1 21.8-37.3 39.3-50.6 22-16.8 49.3-26 76.7-26 31.1 0 59.6 11.8 80.2 33.3 23.3 24.3 35.6 59.9 35.6 103 0 34.7-12.2 70.8-36.3 107.3-19 28.8-45.4 57.9-78.4 86.5-56 48.5-112.9 79.4-113.5 79.7l-3.6 1.9-3.5-1.9c-0.6-0.3-57.5-31.2-113.5-79.7-33.1-28.6-59.4-57.7-78.4-86.5-24.1-36.5-36.3-72.6-36.3-107.3 0-43.1 12.3-78.7 35.6-103 20.6-21.5 49.1-33.3 80.2-33.3q0 0 0 0zm115.9 101.7c-13-60.3-65.2-94.2-115.9-94.2-55 0-108.2 39.7-108.2 128.8 0 145.8 224.1 266.9 224.1 266.9 0 0 224.2-121.1 224.2-266.9 0-89-53.2-128.8-108.2-128.8-50.8 0-102.9 33.9-116 94.2z"/>
					</g>
					<g id="&lt;Group&gt;">
						<path id="&lt;Path&gt;" class="s3" d="m234.6 582.8c0-3.7 0-9.8 0-9.8-14.9-67.1-73.2-95.5-118.4-94.1 42.9 3 94 38 118.4 103.9z"/>
						<path id="&lt;Path&gt;" class="s3" d="m341.9 479.1c49.2 3.8 94.7 41.9 94.7 122.1 0 138.6-213.1 239-213.1 239 0 0-210.2-98.9-213-236.3 0 1.2 0 2.4 0 3.7 0 145.8 224.1 266.9 224.1 266.9 0 0 224.2-121.1 224.2-266.9 0-93.7-59-132.8-116.9-128.5z"/>
					</g>
					<path id="&lt;Path&gt;" class="s4" d="m24.1 635.7c-19.3-130.7 85.6-178.9 151.3-129.2-48.2-26.8-150.2 11-151.3 129.2z"/>
				</g>
				<g id="&lt;Group&gt;">
					<g id="&lt;Group&gt;">
						<path id="&lt;Path&gt;" class="s2" d="m745.6 573.6c-27.1-125.5-224.2-117.5-224.2 34.6 0 145.8 224.2 211.2 224.2 266.9 0-55.7 224.2-121.1 224.2-266.9 0-152.1-197.1-160.1-224.2-34.6z"/>
						<path id="&lt;Compound Path&gt;" fill-rule="evenodd" class="s0" d="m977.4 608.2c0 42-17.4 81-53 119.4-30.2 32.3-68 58.5-101.3 81.7-36 24.9-77.5 50.9-77.5 68.3 0-17.4-41.5-43.4-77.5-68.3-33.3-23.2-71.1-49.4-101.2-81.7-35.7-38.4-53-77.4-53-119.4 0-40 13.1-73.6 38-97.2 22.1-20.9 51.8-32.4 83.6-32.4h0.1c26.6 0 52.5 8.4 73.1 23.5 16.3 12 28.9 27.9 36.9 46.7 8.1-18.8 20.6-34.7 37-46.7 20.5-15.1 46.5-23.5 73.1-23.5 31.9 0 61.6 11.5 83.6 32.4 24.9 23.6 38.1 57.2 38.1 97.2zm-7.6 0c0-81.9-57.1-122-114.1-122-48.8 0-97.6 29.5-110.1 87.4-12.5-57.9-61.2-87.4-110-87.4-57 0-114.2 40.1-114.2 122 0 145.8 224.2 211.2 224.2 266.9 0-55.7 224.2-121.1 224.2-266.9z"/>
					</g>
					<g id="&lt;Group&gt;">
						<path id="&lt;Path&gt;" class="s3" d="m915.3 502.3c21.3 19.4 35.7 49 35.7 89.2 0 139.7-214.8 202.3-214.8 255.7 0-52.4-206.6-113.6-214.5-247.8-0.2 2.9-0.3 5.8-0.3 8.8 0 145.8 224.2 211.2 224.2 266.9 0-55.7 224.2-121.1 224.2-266.9 0-52-23.1-87.2-54.5-105.9z"/>
						<path id="&lt;Path&gt;" class="s3" d="m745.6 587.5v-13.9c-20.1-93.2-133.9-112.7-191.2-54.4 25.2-26.9 150.2-58.4 191.2 68.3z"/>
					</g>
					<path id="&lt;Path&gt;" class="s4" d="m546.4 645.2c-35.6-128.1 80.9-171.2 146.6-121.5-48.2-26.8-160-0.8-146.6 121.5z"/>
				</g>
				<g id="&lt;Group&gt;">
					<g id="&lt;Group&gt;">
						<path id="&lt;Path&gt;" class="s2" d="m1256.6 586.4c-104.7-217.2-305.2-35.1-174.5 111.1 81.8 91.4 174.5 177 174.5 177 0 0 92.7-85.6 174.5-177 130.7-146.2-69.8-328.3-174.5-111.1z"/>
						<path id="&lt;Compound Path&gt;" fill-rule="evenodd" class="s0" d="m1376.9 486.2c81 0 141.5 113.7 54.2 211.3-81.8 91.4-174.5 177-174.5 177 0 0-92.7-85.6-174.5-177-87.3-97.6-26.8-211.3 54.2-211.3 40.2 0 85.5 28.1 120.3 100.2 34.8-72.1 80.1-100.2 120.3-100.2zm-240.7-7.6c-19.7 0-39 6.3-55.7 18.1-16.2 11.5-29.3 27.6-37.8 46.7-10.5 23.3-13.5 49.5-8.8 75.9 5.2 29.4 19.5 57.4 42.6 83.2 81.1 90.7 174 176.7 175 177.5l5.1 4.7 5.1-4.7c1-0.8 93.9-86.8 175-177.5 23.1-25.8 37.4-53.8 42.6-83.2 4.7-26.3 1.7-52.6-8.8-75.9-8.5-19.1-21.6-35.2-37.8-46.7-16.7-11.8-36-18.1-55.8-18.1-22.9 0-46 8.6-66.8 24.7-20.1 15.5-38 37.9-53.5 66.5-15.5-28.6-33.4-51-53.5-66.5-20.8-16.1-43.9-24.7-66.8-24.7q-0.1 0-0.1 0z"/>
					</g>
					<path id="&lt;Path&gt;" class="s3" d="m1463.7 546.7c7.7 38-2.2 83.8-40.4 126.5-81.8 91.4-174.4 176.9-174.4 176.9 0 0-92.7-85.5-174.5-176.9-14.6-16.4-25.1-33.1-32-49.7 5.4 24.3 18 49.7 39.7 74 81.8 91.4 174.5 177 174.5 177 0 0 92.7-85.6 174.5-177 46.8-52.3 51.1-109.2 32.6-150.8z"/>
					<path id="&lt;Path&gt;" class="s3" d="m1256.6 604.6v-18.2c-55.5-115.3-138.1-118.1-183.8-73.5 14.2-11.5 107.1-57.6 183.8 91.7z"/>
					<path id="&lt;Path&gt;" class="s4" d="m1059.4 631.2c-36.4-113.6 68.4-164.3 132.8-98.3-46.8-35.5-141.7-22-132.8 98.3z"/>
				</g>
			</g>
		</g>
	</g>
</svg>